<svg version="1.1" xmlns="http://www.w3.org/2000/svg" xmlns:xlink="http://www.w3.org/1999/xlink" x="0px" y="0px"
	 viewBox="0 0 136.9 155.4" style="enable-background:new 0 0 136.9 155.4;" xml:space="preserve">
<g>
	<g>
		<g>
			<polyline fill="#E34F26" points="12.4,139.6 0,0 136.9,0 124.5,139.6 68.3,155.4 			"/>
			<polyline fill="#EF652A" points="68.6,143.3 113.8,130.8 124.5,11.2 68.6,11.2 			"/>
			<path fill="#EBEBEB" d="M68.6,63.1H45.8l-1.5-17.6h24.3v-17h-0.3H25.5l0.3,4.6l4.2,47.4h38.6V63.1z M68.6,107.8h-0.3
				l-19.1-5.2L48,88.9h-9.1H31l2.1,27l35.2,9.7h0.3V107.8z"/>
			<path fill="#FFFFFF" d="M68.3,63.1v17.3h21.2l-2.1,22.2l-19.1,5.2v17.9l35.2-9.7l0.3-3l3.9-45.2l0.6-4.6h-4.9H68.3z
				 M68.3,28.5v10.6v6.4l0,0h41.6l0,0l0,0l0.3-3.6l0.9-8.8l0.3-4.6H68.3z"/>
		</g>
	</g>
</g>
</svg>
